<?xml version="1.0" encoding="UTF-8" ?>
<!DOCTYPE svg PUBLIC "-//W3C//DTD SVG 1.1//EN" "http://www.w3.org/Graphics/SVG/1.1/DTD/svg11.dtd">
<svg width="202pt" height="193pt" viewBox="0 0 202 193" version="1.1" xmlns="http://www.w3.org/2000/svg">
<g id="#ffffffff">
<path fill="#ffffff" opacity="1.00" d=" M 0.89 20.41 C 39.30 13.98 77.71 7.53 116.09 0.90 C 116.11 64.75 116.06 128.59 116.11 192.44 C 77.69 186.07 39.30 179.51 0.91 172.98 C 0.90 122.12 0.93 71.27 0.89 20.41 M 52.71 64.07 C 46.85 86.02 40.49 107.86 35.01 129.90 C 39.11 130.14 43.24 130.05 47.33 130.54 C 48.46 125.76 49.64 120.99 50.72 116.21 C 56.63 115.90 62.54 116.38 68.44 116.50 C 69.49 121.56 70.99 126.52 71.99 131.59 C 76.69 132.19 81.44 132.07 86.17 132.42 C 81.86 116.55 77.32 100.74 72.96 84.88 C 70.94 77.72 68.88 70.57 66.99 63.37 C 62.23 63.63 57.47 63.85 52.71 64.07 Z" />
<path fill="#ffffff" opacity="1.00" d=" M 121.66 29.73 C 142.53 27.91 163.90 28.98 184.19 34.43 C 190.60 36.70 199.05 38.71 201.36 46.03 C 200.02 51.51 194.50 54.06 189.74 55.99 C 167.99 63.69 144.40 64.03 121.61 62.70 C 121.74 51.71 121.65 40.72 121.66 29.73 Z" />
<path fill="#ffffff" opacity="1.00" d=" M 200.48 53.51 C 201.47 58.29 200.99 63.19 201.09 68.03 C 201.02 71.64 201.38 75.31 200.60 78.87 C 199.93 80.67 198.29 81.82 196.88 83.01 C 194.29 84.56 191.61 85.95 188.76 86.97 C 167.24 94.02 144.10 94.99 121.66 93.25 C 121.66 84.88 121.71 76.51 121.63 68.15 C 136.52 69.66 151.57 68.99 166.40 67.17 C 174.85 65.96 183.28 64.19 191.27 61.13 C 193.77 59.91 196.15 58.48 198.55 57.09 L 198.23 56.25 L 199.24 56.58 C 199.55 55.81 200.17 54.27 200.48 53.51 Z" />
<path fill="#ffffff" opacity="1.00" d=" M 59.38 78.82 C 61.21 87.28 63.53 95.62 65.46 104.06 C 61.41 104.06 57.37 104.04 53.33 104.07 C 55.37 95.66 57.59 87.29 59.38 78.82 Z" />
<path fill="#ffffff" opacity="1.00" d=" M 196.25 89.22 C 198.19 87.76 200.01 86.11 201.20 83.96 C 200.89 91.72 201.27 99.49 201.01 107.25 C 200.92 111.44 196.89 113.58 193.75 115.46 C 178.45 122.28 161.45 123.88 144.89 124.39 C 137.15 125.28 129.41 123.96 121.67 123.98 C 121.67 115.61 121.67 107.24 121.67 98.87 C 129.41 98.98 137.14 100.15 144.86 99.32 C 160.20 99.00 175.75 97.35 190.26 92.12 C 192.26 91.17 194.24 90.17 196.25 89.22 Z" />
<path fill="#ffffff" opacity="1.00" d=" M 189.24 123.13 C 193.35 121.07 198.88 119.60 200.54 114.81 C 201.62 122.17 200.89 129.65 201.08 137.06 C 201.47 142.01 196.49 144.50 192.84 146.53 C 182.18 151.11 170.62 153.07 159.15 154.17 C 146.74 155.60 134.22 155.13 121.77 154.70 C 121.49 146.29 121.85 137.87 121.57 129.47 C 143.28 130.78 165.48 130.29 186.48 124.07 C 187.39 123.73 188.31 123.42 189.24 123.13 Z" />
</g>
</svg>
