<?xml version="1.0" encoding="UTF-8" ?>
<!DOCTYPE svg PUBLIC "-//W3C//DTD SVG 1.1//EN" "http://www.w3.org/Graphics/SVG/1.1/DTD/svg11.dtd">
<svg width="111pt" height="155pt" viewBox="0 0 111 155" version="1.1" xmlns="http://www.w3.org/2000/svg">
<g id="#ffffffff">
<path fill="#ffffff" opacity="1.00" d=" M 28.54 8.46 C 33.14 4.95 38.67 3.06 44.04 1.08 C 39.58 4.15 34.98 7.22 31.69 11.62 C 23.13 22.31 20.84 36.64 21.53 49.98 C 22.82 69.85 29.16 88.99 37.06 107.14 C 39.96 114.81 44.20 121.84 47.98 129.09 C 43.50 125.03 40.38 119.81 37.00 114.87 C 27.87 102.05 21.42 87.55 15.78 72.93 C 12.08 61.75 8.58 49.86 10.75 37.99 C 12.74 26.48 18.63 15.06 28.54 8.46 Z" />
<path fill="#ffffff" opacity="1.00" d=" M 50.00 3.05 C 52.56 0.79 56.63 0.84 59.38 2.76 C 63.36 5.29 65.53 9.76 67.28 13.98 C 72.12 27.04 72.72 41.21 72.05 54.99 C 70.28 81.08 64.00 106.66 56.49 131.62 C 55.27 131.69 54.03 131.65 52.83 131.40 C 46.97 110.87 41.65 90.07 38.87 68.86 C 37.01 53.11 36.31 36.89 40.03 21.35 C 41.88 14.65 44.44 7.58 50.00 3.05 Z" />
<path fill="#ffffff" opacity="1.00" d=" M 65.16 0.90 C 74.60 3.54 83.58 8.42 89.88 16.07 C 97.53 26.60 101.68 40.08 99.45 53.07 C 97.31 66.66 92.59 79.79 86.11 91.90 C 79.50 105.92 71.33 119.31 60.96 130.88 C 69.40 116.44 76.35 101.11 81.37 85.15 C 86.81 68.44 90.43 50.59 87.66 33.03 C 85.63 19.60 77.43 7.06 65.16 0.90 Z" />
<path fill="#ffffff" opacity="1.00" d=" M 92.19 10.77 C 99.17 16.08 105.24 22.98 107.79 31.53 C 110.64 39.96 110.31 49.17 108.08 57.70 C 102.60 79.59 90.78 99.34 76.93 116.95 C 74.44 120.11 72.03 123.35 69.14 126.16 C 76.44 116.56 83.44 106.71 89.32 96.16 C 98.80 79.67 106.92 61.40 106.52 42.00 C 106.69 33.28 103.60 24.66 98.36 17.72 C 96.45 15.28 94.13 13.20 92.19 10.77 Z" />
<path fill="#ffffff" opacity="1.00" d=" M 0.49 41.00 C 1.48 29.55 7.43 18.49 16.82 11.75 C 10.52 18.46 5.38 26.65 4.20 35.94 C 2.56 44.14 4.12 52.47 5.81 60.52 C 8.02 69.95 11.84 78.94 16.27 87.52 C 23.28 101.61 32.09 114.76 42.00 126.97 C 40.61 125.71 39.30 124.36 38.09 122.93 C 26.81 109.27 16.61 94.54 9.37 78.32 C 4.06 66.64 -0.17 53.99 0.49 41.00 Z" />
<path fill="#ffffff" opacity="1.00" d=" M 43.73 139.19 C 51.16 138.84 58.62 138.87 66.05 139.16 C 66.06 143.87 64.23 148.32 63.57 152.95 C 61.37 153.72 59.00 153.71 56.69 153.65 C 53.28 153.58 49.77 154.01 46.46 152.98 C 45.01 148.52 43.63 143.93 43.73 139.19 Z" />
</g>
</svg>
