<?xml version="1.0" encoding="UTF-8" ?>
<!DOCTYPE svg PUBLIC "-//W3C//DTD SVG 1.1//EN" "http://www.w3.org/Graphics/SVG/1.1/DTD/svg11.dtd">
<svg width="295pt" height="244pt" viewBox="0 0 295 244" version="1.1" xmlns="http://www.w3.org/2000/svg">
<g id="#ffffffff">
<path fill="#ffffff" opacity="1.00" d=" M 103.44 2.05 C 106.58 0.94 110.06 2.13 113.14 0.67 C 144.43 -1.39 176.42 9.10 200.44 29.47 C 204.84 33.77 209.12 38.18 213.51 42.49 C 218.91 47.67 222.62 54.23 226.94 60.26 C 209.99 70.32 192.80 80.01 175.75 89.92 C 170.61 82.70 164.98 75.52 157.34 70.79 C 149.49 65.30 140.22 62.09 130.85 60.52 C 124.95 60.47 119.05 60.46 113.16 60.52 C 96.58 63.03 80.71 72.15 71.23 86.15 C 65.37 94.02 62.17 103.59 60.52 113.16 C 60.44 118.75 60.52 124.35 60.48 129.95 C 62.12 143.45 68.39 156.35 77.98 166.02 C 87.64 175.62 100.55 181.87 114.05 183.51 C 121.60 183.22 129.29 184.36 136.66 182.34 C 148.33 179.48 159.38 173.43 167.51 164.51 C 170.84 161.52 172.81 157.41 175.75 154.08 C 192.80 164.00 210.01 173.68 226.95 183.76 C 223.45 188.91 219.86 194.01 216.02 198.91 C 211.94 203.19 207.64 207.27 203.51 211.50 C 198.09 217.33 191.27 221.56 184.62 225.81 C 173.87 232.50 161.91 236.89 149.72 240.14 C 144.47 240.68 139.56 243.13 134.19 242.53 C 128.29 244.27 122.03 243.21 115.94 243.51 C 113.18 243.83 110.73 242.12 107.97 242.50 C 103.52 242.95 99.49 240.55 95.10 240.31 C 73.59 235.01 52.94 224.60 37.50 208.50 C 21.60 193.65 10.39 174.02 4.54 153.14 C 2.26 145.93 1.81 138.40 0.50 131.04 C 0.61 124.41 0.27 117.76 0.67 111.14 C 1.92 108.38 1.10 105.27 2.10 102.46 C 4.19 87.36 10.27 73.08 17.75 59.89 C 22.81 52.08 27.97 44.21 35.00 38.00 C 52.85 18.67 77.63 6.32 103.44 2.05 Z" />
<path fill="#ffffff" opacity="1.00" d=" M 218.43 102.43 C 222.47 102.54 226.52 102.54 230.57 102.43 C 230.40 106.82 230.59 111.21 230.40 115.60 C 234.79 115.40 239.18 115.60 243.57 115.43 C 243.45 119.81 243.45 124.19 243.57 128.57 C 239.18 128.40 234.79 128.60 230.40 128.40 C 230.59 132.79 230.40 137.18 230.57 141.57 C 226.52 141.45 222.47 141.45 218.43 141.57 C 218.60 137.18 218.40 132.79 218.60 128.40 C 213.88 128.60 209.15 128.39 204.43 128.57 C 204.55 124.19 204.55 119.81 204.43 115.43 C 209.15 115.61 213.88 115.40 218.60 115.60 C 218.40 111.21 218.60 106.82 218.43 102.43 Z" />
<path fill="#ffffff" opacity="1.00" d=" M 269.43 102.43 C 273.47 102.54 277.52 102.54 281.57 102.43 C 281.40 106.82 281.59 111.21 281.40 115.60 C 285.79 115.40 290.18 115.60 294.57 115.43 C 294.45 119.81 294.45 124.19 294.57 128.57 C 290.18 128.40 285.79 128.60 281.40 128.40 C 281.59 132.79 281.40 137.18 281.57 141.57 C 277.52 141.45 273.47 141.45 269.43 141.57 C 269.60 137.18 269.40 132.79 269.60 128.40 C 264.88 128.60 260.15 128.39 255.43 128.57 C 255.55 124.19 255.55 119.81 255.43 115.43 C 260.15 115.61 264.87 115.40 269.60 115.60 C 269.40 111.21 269.60 106.82 269.43 102.43 Z" />
</g>
</svg>
