<?xml version="1.0" encoding="UTF-8" ?>
<!DOCTYPE svg PUBLIC "-//W3C//DTD SVG 1.1//EN" "http://www.w3.org/Graphics/SVG/1.1/DTD/svg11.dtd">
<svg width="284pt" height="271pt" viewBox="0 0 284 271" version="1.1" xmlns="http://www.w3.org/2000/svg">
<g id="#979796ff">
<path fill="#979796" opacity="1.00" d=" M 159.99 0.00 L 160.92 0.00 C 161.14 90.33 160.94 180.67 161.02 271.00 L 159.09 271.00 C 106.09 261.11 52.99 251.78 0.00 241.89 L 0.00 29.30 C 53.31 19.44 106.72 10.04 159.99 0.00 M 94.27 86.00 C 89.08 98.21 82.68 109.97 78.79 122.69 C 74.98 110.81 69.69 99.47 65.11 87.87 C 58.28 88.39 51.46 88.95 44.62 89.28 C 51.50 103.69 58.64 117.98 65.58 132.35 C 67.07 134.89 64.36 137.31 63.48 139.62 C 56.47 152.69 49.62 165.83 42.62 178.91 C 49.34 179.07 56.00 180.35 62.74 180.01 C 65.82 173.02 69.03 166.08 72.19 159.13 C 74.09 154.77 76.52 150.57 77.35 145.83 C 77.63 145.65 78.20 145.30 78.48 145.12 C 78.88 147.64 79.35 150.19 80.54 152.47 C 85.16 162.26 89.15 172.33 93.93 182.03 C 101.50 181.87 109.00 183.02 116.56 183.07 C 107.86 166.51 99.08 149.99 90.39 133.43 C 98.92 117.13 107.48 100.85 115.83 84.47 C 108.63 84.91 101.44 85.23 94.27 86.00 Z" />
<path fill="#979796" opacity="1.00" d=" M 170.02 31.79 C 208.01 31.81 246.01 31.81 284.00 31.79 L 284.00 238.74 C 246.02 238.76 208.03 238.73 170.05 238.76 C 169.94 232.17 169.94 225.58 170.05 218.99 C 184.11 218.94 198.18 219.00 212.24 218.96 C 212.28 209.89 212.23 200.82 212.28 191.75 C 198.19 191.77 184.10 191.75 170.02 191.76 C 170.02 188.96 170.02 186.16 170.05 183.36 C 184.13 183.43 198.20 183.37 212.28 183.39 C 212.24 174.20 212.24 165.01 212.28 155.82 C 198.20 155.80 184.12 155.82 170.04 155.81 C 170.00 152.89 170.00 149.98 170.02 147.07 C 184.11 147.04 198.19 147.04 212.27 147.07 C 212.24 138.05 212.26 129.04 212.26 120.02 C 198.18 119.96 184.10 120.11 170.03 119.94 C 170.01 117.28 170.01 114.63 170.04 111.97 C 184.10 111.97 198.17 111.97 212.24 111.97 C 212.29 102.90 212.21 93.82 212.29 84.74 C 198.20 84.70 184.12 84.75 170.04 84.72 C 169.99 81.75 169.98 78.77 169.96 75.79 C 184.04 75.79 198.12 75.77 212.20 75.80 C 212.29 66.65 212.30 57.50 212.19 48.35 C 198.12 48.42 184.05 48.40 169.98 48.37 C 169.98 42.84 169.96 37.32 170.02 31.79 M 220.35 48.79 C 220.48 57.64 220.52 66.49 220.33 75.34 C 235.00 75.61 249.68 75.28 264.35 75.51 C 264.39 66.57 264.34 57.62 264.37 48.67 C 249.70 48.84 235.02 48.61 220.35 48.79 M 220.37 84.96 C 220.54 93.63 220.37 102.31 220.43 110.98 C 220.54 111.18 220.74 111.59 220.85 111.80 C 235.34 111.84 249.84 111.63 264.33 111.90 C 264.42 102.91 264.31 93.92 264.39 84.93 C 249.72 84.95 235.04 84.88 220.37 84.96 M 220.36 120.19 C 220.54 129.13 220.37 138.07 220.46 147.01 C 235.09 146.98 249.72 147.01 264.36 146.99 C 264.35 138.01 264.41 129.04 264.32 120.06 C 249.67 120.28 235.01 120.03 220.36 120.19 M 220.35 156.10 C 220.49 165.10 220.51 174.11 220.34 183.11 C 235.03 183.17 249.72 183.11 264.41 183.13 C 264.32 174.08 264.35 165.02 264.40 155.96 C 249.71 156.04 235.03 155.79 220.35 156.10 M 220.36 192.03 C 220.57 200.88 220.34 209.74 220.46 218.59 C 235.06 219.08 249.70 218.58 264.32 218.83 C 264.42 209.86 264.32 200.90 264.38 191.93 C 249.71 192.02 235.03 191.83 220.36 192.03 Z" />
</g>
</svg>
