<?xml version="1.0" encoding="UTF-8" ?>
<!DOCTYPE svg PUBLIC "-//W3C//DTD SVG 1.1//EN" "http://www.w3.org/Graphics/SVG/1.1/DTD/svg11.dtd">
<svg width="48pt" height="50pt" viewBox="0 0 48 50" version="1.1" xmlns="http://www.w3.org/2000/svg">
<g id="#f6f5f4ff">
<path fill="#f6f5f4" opacity="1.00" d=" M 0.00 0.00 L 48.00 0.00 L 48.00 2.43 C 46.13 16.55 45.16 30.78 43.66 44.95 C 37.36 46.76 30.95 48.13 24.67 50.00 L 23.34 50.00 C 17.06 48.13 10.62 46.80 4.34 44.91 C 2.88 30.76 1.93 16.53 0.00 2.43 L 0.00 0.00 M 4.49 3.75 C 5.48 16.54 6.87 29.31 7.91 42.10 C 13.27 43.56 18.59 45.22 24.02 46.35 C 29.37 45.01 34.74 43.67 39.99 41.98 C 40.90 29.22 42.35 16.50 43.39 3.76 C 30.42 3.72 17.45 3.74 4.49 3.75 Z" />
<path fill="#f6f5f4" opacity="1.00" d=" M 9.05 8.36 C 19.01 8.41 28.98 8.39 38.94 8.35 C 38.79 10.30 38.63 12.25 38.47 14.20 C 30.88 14.19 23.29 14.38 15.72 14.11 C 15.62 16.17 15.78 18.23 15.97 20.28 C 23.27 20.37 30.57 20.32 37.88 20.30 C 37.43 26.34 36.73 32.35 36.30 38.39 C 32.19 39.42 28.16 40.81 23.99 41.65 C 19.82 40.84 15.79 39.45 11.69 38.37 C 11.45 35.31 11.14 32.25 10.99 29.18 C 12.93 29.23 14.87 29.24 16.80 29.21 C 16.99 30.76 17.16 32.32 17.33 33.87 C 19.54 34.48 21.72 35.26 24.00 35.60 C 26.29 35.27 28.49 34.49 30.72 33.86 C 31.00 31.29 31.30 28.71 31.27 26.12 C 24.35 26.15 17.40 26.45 10.49 25.95 C 10.18 20.07 9.39 14.23 9.05 8.36 Z" />
</g>
</svg>
