<?xml version="1.0" encoding="UTF-8" ?>
<!DOCTYPE svg PUBLIC "-//W3C//DTD SVG 1.1//EN" "http://www.w3.org/Graphics/SVG/1.1/DTD/svg11.dtd">
<svg width="172pt" height="164pt" viewBox="0 0 172 164" version="1.1" xmlns="http://www.w3.org/2000/svg">
<g id="#ffffffff">
<path fill="#ffffff" opacity="1.00" d=" M 0.79 16.78 C 33.32 11.32 65.83 5.64 98.39 0.37 C 98.32 54.68 98.39 108.98 98.36 163.29 C 65.84 157.62 33.27 152.17 0.80 146.22 C 0.81 103.08 0.84 59.93 0.79 16.78 M 36.21 54.42 C 36.00 54.60 35.58 54.98 35.37 55.16 C 35.29 73.44 35.30 91.73 35.38 110.01 C 38.59 109.96 42.11 110.91 45.14 110.18 C 45.96 104.10 45.29 97.63 45.45 91.41 C 51.81 91.58 58.90 90.33 63.35 85.38 C 68.44 79.73 68.70 71.40 67.18 64.33 C 66.13 59.53 62.48 55.12 57.50 54.21 C 50.51 52.64 43.25 53.74 36.21 54.42 Z" />
<path fill="#ffffff" opacity="1.00" d=" M 103.18 30.94 C 124.47 30.96 145.76 30.93 167.05 30.94 C 168.44 30.86 169.71 31.48 171.01 31.86 C 171.02 57.92 171.15 83.99 170.95 110.04 C 170.78 112.74 167.50 112.09 165.64 112.27 C 165.68 91.18 165.63 70.09 165.66 48.99 C 165.66 45.03 165.79 41.06 165.37 37.12 C 144.63 37.17 123.89 37.14 103.15 37.12 C 103.12 35.06 103.14 33.00 103.18 30.94 Z" />
<path fill="#ffffff" opacity="1.00" d=" M 103.16 42.90 C 120.81 42.93 138.46 42.86 156.11 42.92 C 157.99 42.42 159.14 44.25 159.03 45.93 C 159.13 72.95 159.01 99.97 159.08 126.99 C 158.95 128.40 159.36 130.11 158.25 131.23 C 157.02 132.20 155.39 131.90 153.95 131.98 C 137.06 131.92 120.18 132.01 103.29 131.93 C 103.07 129.01 103.06 126.08 103.17 123.15 C 116.30 122.63 129.45 123.22 142.59 122.83 C 142.24 120.06 143.42 116.43 141.94 114.17 C 129.05 113.74 116.11 114.31 103.21 113.87 C 103.11 112.13 103.06 110.38 103.03 108.64 C 116.09 108.49 129.15 108.61 142.22 108.61 C 142.49 105.68 143.54 101.91 141.77 99.46 C 128.92 99.22 116.05 99.52 103.19 99.35 C 103.11 97.56 103.08 95.76 103.09 93.97 C 108.20 94.95 113.65 95.60 118.56 93.39 C 126.65 90.22 132.59 81.91 132.16 73.09 C 125.08 72.97 118.01 73.07 110.93 73.04 C 110.91 65.97 111.00 58.91 110.88 51.84 C 108.33 51.90 105.78 52.20 103.29 52.76 C 103.02 49.48 102.98 46.19 103.16 42.90 M 113.77 48.71 C 113.05 55.65 113.67 62.82 113.48 69.85 C 120.64 70.03 127.80 70.03 134.96 69.85 C 135.62 58.60 125.00 47.75 113.77 48.71 Z" />
<path fill="#ffffff" opacity="1.00" d=" M 45.47 64.40 C 49.04 63.91 53.49 64.41 55.44 67.88 C 56.96 71.63 56.60 76.54 53.35 79.28 C 51.20 81.10 48.24 81.22 45.57 81.45 C 45.37 75.77 45.55 70.09 45.47 64.40 Z" />
</g>
</svg>
