<?xml version="1.0" encoding="UTF-8" ?>
<!DOCTYPE svg PUBLIC "-//W3C//DTD SVG 1.1//EN" "http://www.w3.org/Graphics/SVG/1.1/DTD/svg11.dtd">
<svg width="36pt" height="31pt" viewBox="0 0 36 31" version="1.1" xmlns="http://www.w3.org/2000/svg">
<g id="#f8f7f6fe">
<path fill="#f8f7f6" opacity="1.00" d=" M 1.19 0.77 C 5.76 0.59 10.77 -0.31 14.92 2.12 C 19.47 4.91 19.97 11.83 16.89 15.86 C 14.17 19.13 9.67 19.65 5.69 19.44 C 5.73 22.88 5.67 26.33 5.73 29.77 C 4.23 29.75 2.74 29.76 1.24 29.80 C 1.20 20.12 1.30 10.44 1.19 0.77 M 5.74 4.76 C 5.68 8.26 5.68 11.76 5.72 15.26 C 8.48 15.24 12.10 15.41 13.58 12.53 C 13.98 10.68 14.24 8.49 13.24 6.79 C 11.47 4.52 8.30 4.78 5.74 4.76 Z" />
<path fill="#f8f7f6" opacity="1.00" d=" M 25.62 8.67 C 28.46 7.76 31.55 8.09 34.38 8.88 C 34.33 10.21 34.29 11.54 34.26 12.86 C 32.02 12.40 29.69 11.82 27.40 12.33 C 26.39 12.83 26.06 13.61 26.39 14.67 C 28.72 17.10 32.49 17.75 34.36 20.66 C 36.56 23.81 34.51 28.58 30.96 29.65 C 27.93 30.23 24.78 29.95 21.79 29.24 C 21.80 27.78 21.77 26.33 21.72 24.87 C 24.47 25.44 27.72 27.42 30.26 25.27 C 31.55 23.73 29.65 22.35 28.45 21.59 C 26.30 20.11 23.33 19.25 22.34 16.59 C 20.65 13.64 22.82 9.99 25.62 8.67 Z" />
</g>
</svg>
