<?xml version="1.0" encoding="UTF-8" ?>
<!DOCTYPE svg PUBLIC "-//W3C//DTD SVG 1.1//EN" "http://www.w3.org/Graphics/SVG/1.1/DTD/svg11.dtd">
<svg width="201pt" height="192pt" viewBox="0 0 201 192" version="1.1" xmlns="http://www.w3.org/2000/svg">
<g id="#ffffffff">
<path fill="#ffffff" opacity="1.00" d=" M 115.26 0.00 L 115.67 0.00 C 115.49 2.34 115.48 4.68 115.49 7.02 C 115.60 68.68 115.33 130.35 115.62 192.00 L 114.38 192.00 C 114.40 191.84 114.45 191.52 114.48 191.36 C 76.55 185.15 38.68 178.58 0.77 172.21 C 0.78 121.44 0.78 70.66 0.77 19.89 C 35.63 13.90 70.54 8.17 105.39 2.16 C 108.68 1.49 112.19 1.47 115.26 0.00 M 79.93 60.52 C 77.32 77.39 74.46 94.24 71.61 111.07 C 71.71 107.30 70.61 103.68 69.97 100.00 C 67.46 87.21 65.06 74.40 62.60 61.60 C 58.20 61.77 53.83 62.30 49.44 62.45 C 46.05 77.93 43.17 93.53 39.78 109.01 C 37.65 93.84 35.22 78.70 32.74 63.58 C 28.82 63.72 24.93 64.27 21.00 64.30 C 21.75 72.25 23.75 80.02 25.12 87.88 C 27.45 101.42 30.61 114.87 32.55 128.44 C 37.09 128.10 41.62 128.97 46.17 128.90 C 49.11 113.91 52.26 98.95 55.15 83.95 C 58.08 99.45 61.18 114.94 64.41 130.37 C 69.23 130.46 74.03 131.06 78.86 130.92 C 79.23 129.02 79.61 127.12 80.15 125.26 C 84.57 103.30 89.68 81.48 94.07 59.51 C 89.35 59.73 84.64 60.17 79.93 60.52 Z" />
<path fill="#ffffff" opacity="1.00" d=" M 121.37 22.37 C 147.27 22.68 173.17 22.38 199.06 22.52 C 199.55 23.17 200.52 24.48 201.00 25.13 L 201.00 164.00 C 200.58 165.39 199.74 168.15 199.32 169.54 C 173.34 169.54 147.35 169.36 121.37 169.63 C 121.58 162.88 121.58 156.12 121.37 149.37 C 142.12 149.74 162.87 149.26 183.61 149.62 C 183.45 146.54 183.45 143.46 183.62 140.38 C 162.87 140.74 142.11 140.26 121.37 140.63 C 121.56 136.88 121.57 133.12 121.37 129.37 C 142.11 129.74 162.87 129.26 183.62 129.62 C 183.45 126.54 183.45 123.46 183.62 120.38 C 162.87 120.74 142.11 120.26 121.37 120.63 C 121.56 116.88 121.57 113.12 121.37 109.37 C 142.11 109.74 162.87 109.26 183.62 109.62 C 183.45 106.54 183.45 103.46 183.61 100.38 C 162.87 100.74 142.11 100.26 121.37 100.63 C 121.57 96.88 121.57 93.12 121.37 89.37 C 142.11 89.74 162.87 89.26 183.62 89.62 C 183.45 86.54 183.45 83.46 183.62 80.38 C 162.87 80.74 142.11 80.26 121.37 80.63 C 121.57 76.88 121.56 73.12 121.37 69.37 C 142.11 69.75 162.87 69.26 183.62 69.62 C 183.45 66.54 183.45 63.46 183.61 60.38 C 162.87 60.74 142.11 60.26 121.37 60.63 C 121.57 56.88 121.56 53.12 121.37 49.37 C 142.11 49.74 162.87 49.26 183.61 49.62 C 183.45 46.54 183.45 43.46 183.62 40.38 C 162.87 40.74 142.12 40.26 121.37 40.63 C 121.58 34.55 121.58 28.45 121.37 22.37 Z" />
</g>
</svg>
